<svg id="General_layer" enable-background="new 0 0 400 400" height="400" viewBox="0 0 400 400" width="400" xmlns="http://www.w3.org/2000/svg"><g clip-rule="evenodd" fill-rule="evenodd"><path d="m0 0h400v400h-400z" fill="#fff"/><g><path d="m245.935 327.306c31.424-69.227 40.923-132.714 29.572-218.16 15.957 86.098 9.627 150.2-18.584 220.715 125.822-37.835 117.352-159.765 14.957-241.407-11.058 86.498-180.266 126.54-25.945 238.852z" fill="#5ecc5e"/><path d="m169.521 60.053c36.448 11.193 67.645 27.584 92.1 47.36-7.633 17.763-21.326 33.512-33.848 47.329-1.31 1.446-2.655 2.913-4.026 4.403-10.773-25.247-24.439-50.962-41.378-78.075 15.849 28.52 28.344 55.476 37.846 81.902-17.462 18.913-37.698 41.105-42.527 65.583-3.353 16.989.956 32.826 9.767 47.456 13.01 21.603 35.499 40.504 55.656 55.175l.73.53c-.001.025-.002.051-.004.077-216.62-56.232-49.215-172.617-74.316-271.74z" fill="#48b548"/><path d="m132.208 203.211c-4.569 16.121-7.484 33.332-4.442 50.016 3.615 19.833 14.949 34.981 30.733 47.069 23.378 17.905 55.955 28.826 84.133 36.141l.461.119c.086.27.171.538.257.808-260.958 27.351-125.026-169.28-193.35-267.786 43.247-2.616 83.087 2.154 117.35 13.063-.138 23.563-8.637 47.642-16.693 68.975-.436 1.155-.875 2.311-1.316 3.466-21.991-22.939-47.265-45.234-76.592-67.712 28.756 24.476 53.297 48.622 74.412 73.389-5.392 13.999-10.875 28.059-14.953 42.452z" fill="#393"/></g></g></svg>